<?xml version="1.0" encoding="utf-8"?>
<!-- Generator: Adobe Illustrator 16.0.0, SVG Export Plug-In . SVG Version: 6.00 Build 0)  -->
<!DOCTYPE svg PUBLIC "-//W3C//DTD SVG 1.1//EN" "http://www.w3.org/Graphics/SVG/1.1/DTD/svg11.dtd">
<svg version="1.1" id="Layer_1" xmlns:sketch="http://www.bohemiancoding.com/sketch/ns"
	 xmlns="http://www.w3.org/2000/svg" xmlns:xlink="http://www.w3.org/1999/xlink" x="0px" y="0px" width="5551.406px"
	 height="5409.176px" viewBox="0 0 5551.406 5409.176" enable-background="new 0 0 5551.406 5409.176" xml:space="preserve">
<g>
	<g id="amiibo" sketch:type="MSPage">
		<g id="Desktop-HD" transform="translate(-521.000000, -1640.000000)" sketch:type="MSArtboardGroup">
			<g id="supermariobros30th" transform="translate(-317.000000, 639.000000)" sketch:type="MSLayerGroup">
				<g id="mario30thanniversary" transform="translate(838.000000, 1000.000000)" sketch:type="MSShapeGroup">
					<g id="Group">
						<path id="Shape" fill="#FFFFFF" d="M4898.345,1H653.09C292.988,1,0,294.871,0,656.092V4754.99
							c0,361.277,292.988,655.186,653.09,655.186h4245.254c360.104,0,653.062-293.908,653.062-655.186V656.092
							C5551.405,294.871,5258.447,1,4898.345,1"/>
						<path id="Shape_1_" fill="#692E1A" d="M4898.345,234.565H653.052c-231.698,0-420.18,189.106-420.18,421.526v4098.976
							c0,232.379,188.521,421.475,420.18,421.475h4245.253c231.736,0,420.209-189.096,420.209-421.475V656.091
							C5318.552,423.673,5130.078,234.565,4898.345,234.565 M4898.345,402.412c139.102,0,252.845,114.188,252.845,253.68v4098.975
							c0,139.52-113.743,253.68-252.845,253.68H653.052c-139.092,0-252.893-114.16-252.893-253.68V656.092
							c0-139.492,113.801-253.68,252.893-253.68H4898.345"/>
						<path id="Shape_2_" fill="#692E1A" d="M4907.335,799.554c0,67.323-54.416,121.787-121.464,121.787
							c-67.104,0-121.425-54.502-121.425-121.787c0-67.283,54.358-121.784,121.425-121.784
							C4852.958,677.77,4907.335,732.232,4907.335,799.554"/>
						<path id="Shape_3_" fill="#692E1A" d="M886.996,754.794c0,67.312-54.367,121.813-121.443,121.813
							c-67.114,0-121.482-54.54-121.482-121.813c0-67.296,54.368-121.822,121.482-121.822
							C832.629,632.972,886.996,687.499,886.996,754.794"/>
						<path id="Shape_4_" fill="#692E1A" d="M4907.335,4656.324c0,67.334-54.416,121.803-121.464,121.803
							c-67.104,0-121.425-54.51-121.425-121.803c0-67.275,54.358-121.729,121.425-121.729
							C4852.958,4534.596,4907.335,4589.049,4907.335,4656.324"/>
						<path id="Shape_5_" fill="#692E1A" d="M886.996,4656.324c0,67.334-54.367,121.803-121.443,121.803
							c-67.114,0-121.482-54.51-121.482-121.803c0-67.275,54.368-121.729,121.482-121.729
							C832.629,4534.596,886.996,4589.049,886.996,4656.324"/>
						<path id="Shape_6_" fill="#D54E27" d="M2886.98,4397.201v-148.814h-74.18v223.318h148.317v-74.467h-74.14v-0.037H2886.98z
							 M2664.415,4248.387h-74.15v223.318h148.338v-74.467h-74.188V4248.387L2664.415,4248.387z"/>
						<rect id="Rectangle-path" x="2516.076" y="4694.846" fill="#FBB46C" width="519.241" height="74.33"/>
						<path id="Shape_7_" fill="#FBB46C" d="M2961.159,4248.387v223.201h-148.358v-223.201h-74.198v223.201h-148.338v-223.201
							h-74.15v372.033h519.203v-372.033H2961.159z"/>
						<path id="Shape_8_" fill="#692E1A" d="M4370.88,3078.105h74.387v248.729h49.638v-248.729h74.424v-49.809h-198.447
							L4370.88,3078.105L4370.88,3078.105z"/>
						<path id="Shape_9_" fill="#692E1A" d="M4767.284,3028.299v124.42h-99.271v-124.42h-49.578v298.535h49.578v-124.346h99.271
							v124.346h49.561v-298.535H4767.284z"/>
						<path id="Shape_10_" fill="#692E1A" d="M1657.234,3650.348v293.453h169.525v-48.895h-120.752v-73.424h97.508v-48.895h-97.508
							v-73.365h120.752v-48.877h-169.525V3650.348z"/>
						<path id="Shape_11_" fill="#692E1A" d="M2046.176,3650.348h-146.291v293.453h48.734v-122.316h73.127l24.381,24.545v97.771
							h48.744v-122.316l-24.391-24.391l24.391-24.543v-73.361L2046.176,3650.348L2046.176,3650.348z M1948.658,3772.59v-73.365
							h73.126l24.392,24.469v24.467l-24.392,24.469h-73.126V3772.59z"/>
						<path id="Shape_12_" fill="#692E1A" d="M1540.428,3650.348h-146.243v293.453h48.773v-122.316h97.47l48.772-48.896v-73.363
							L1540.428,3650.348L1540.428,3650.348z M1442.921,3723.693v-24.469h73.126l24.381,24.469v24.467l-24.381,24.467h-73.126
							V3723.693L1442.921,3723.693z"/>
						<path id="Shape_13_" fill="#692E1A" d="M1272.248,3870.457l-24.391,24.449h-48.735l-24.382-24.449V3650.35h-48.745v244.559
							l48.745,48.895h97.508l48.772-48.895V3650.35h-48.772V3870.457L1272.248,3870.457z"/>
						<path id="Shape_14_" fill="#692E1A" d="M1004.097,3650.348h-97.546l-48.773,48.877v73.363l48.773,48.896h73.127l24.419,24.545
							v24.428l-24.419,24.449h-48.736l-24.391-24.449h-48.773v24.449l48.773,48.895h97.546l48.744-48.895v-73.424l-48.744-48.895
							h-73.155l-24.391-24.467v-24.43l24.391-24.469h48.736l24.419,24.469h48.744v-24.469L1004.097,3650.348z"/>
						<path id="Shape_15_" fill="#692E1A" d="M2704.511,3650.348h-48.773l-73.117,73.346v220.145h48.736v-97.771h97.507v97.771
							h48.772v-220.145L2704.511,3650.348L2704.511,3650.348z M2728.864,3797.094h-97.508v-48.973l48.773-48.895l48.734,48.895
							L2728.864,3797.094L2728.864,3797.094z"/>
						<path id="Shape_16_" fill="#692E1A" d="M2460.722,3650.348l-73.165,73.346l-73.126-73.346h-48.736v293.453h48.736v-220.107
							l73.126,73.4l73.165-73.4v220.107h48.734v-293.453H2460.722L2460.722,3650.348z"/>
						<path id="Shape_17_" fill="#692E1A" d="M2997.043,3650.348h-146.232v293.453h48.687v-122.316h73.154l24.392,24.545v97.771
							h48.784v-122.316l-24.392-24.391l24.392-24.543v-73.361L2997.043,3650.348L2997.043,3650.348z M2899.537,3772.59v-73.365
							h73.153l24.393,24.469v24.467l-24.393,24.469h-73.153V3772.59z"/>
						<rect id="Rectangle-path_1_" x="3115.472" y="3650.348" fill="#692E1A" width="48.745" height="293.453"/>
						<path id="Shape_18_" fill="#692E1A" d="M3428.915,3650.348h-121.88l-73.155,73.346v146.803l73.155,73.344h121.88
							l73.119-73.344v-146.803L3428.915,3650.348L3428.915,3650.348z M3453.29,3846.029L3453.29,3846.029l-48.727,48.877h-73.139
							l-48.742-48.877v-97.869l48.742-48.896h73.139l48.727,48.896V3846.029L3453.29,3846.029z"/>
						<path id="Shape_19_" fill="#692E1A" d="M4087.252,3650.348h-146.291v293.453h48.763v-122.316h73.098l24.432,24.545v97.771
							h48.781v-122.316l-24.428-24.391l24.428-24.543v-73.361L4087.252,3650.348L4087.252,3650.348z M3989.724,3772.59v-73.365
							h73.097l24.432,24.469v24.467l-24.432,24.469h-73.097V3772.59z"/>
						<path id="Shape_20_" fill="#692E1A" d="M3819.099,3650.348h-146.307v293.453h146.309l48.744-48.895v-73.424l-24.393-24.391
							l24.393-24.543v-73.361L3819.099,3650.348L3819.099,3650.348z M3721.517,3699.225h73.153l24.429,24.469v24.467l-24.429,24.467
							h-73.153v-48.895V3699.225L3721.517,3699.225z M3721.517,3894.906v-73.422h73.153l24.429,24.545v24.467l-24.429,24.447
							h-73.153V3894.906z"/>
						<path id="Shape_21_" fill="#692E1A" d="M4687.414,3650.348h-97.507l-48.82,48.877v73.363l48.82,48.896h73.098l24.409,24.545
							v24.428l-24.409,24.449h-48.742l-24.354-24.449h-48.82v24.449l48.82,48.895h97.507l48.688-48.895v-73.424l-48.688-48.895
							h-73.15l-24.355-24.467v-24.43l24.355-24.469h48.741l24.409,24.469h48.688v-24.469L4687.414,3650.348z"/>
						<path id="Shape_22_" fill="#692E1A" d="M4401.075,3650.348h-121.879l-73.176,73.346v146.803l73.176,73.344h121.879
							l73.136-73.344v-146.803L4401.075,3650.348L4401.075,3650.348z M4425.429,3846.029L4425.429,3846.029l-48.729,48.877h-73.152
							l-48.744-48.877v-97.869l48.744-48.896h73.152l48.729,48.896V3846.029L4425.429,3846.029z"/>
						<rect id="Rectangle-path_2_" x="4784.886" y="3894.906" fill="#692E1A" width="48.781" height="48.895"/>
						<path id="Shape_23_" fill="#D54E27" d="M3128.332,986.378h-146.993l-0.074,0.075l-53.485,53.655h200.553V986.378z"/>
						<rect id="Rectangle-path_3_" x="3168.334" y="986.378" fill="#D54E27" width="93.372" height="53.695"/>
						<g transform="translate(41.136986, 51.090909)">
							<g id="Shape_24_" transform="translate(0.000000, 68.776224)">
								<path fill="#EF3F23" d="M1004.847,2456.946h26.677v-80.335h-26.677V2456.946L1004.847,2456.946z M924.722,2456.946h26.715
									v-80.335h-26.715V2456.946L924.722,2456.946z"/>
								<path fill="#FBB46C" d="M951.438,2456.946h-26.715v-80.37h26.715V2456.946L951.438,2456.946z M1031.563,2456.946h-26.676
									v-80.37h26.676V2456.946L1031.563,2456.946z M1084.972,2456.946h26.715v-26.791h26.667v-26.788h26.744v-53.582H1058.23
									v-26.801h-26.667v-53.543h-26.715v-53.543h-53.41v53.543h-26.715v53.543h-26.667v26.801h-106.83v53.582h26.706v26.788
									h26.752v26.791h26.668v53.543h-26.668v80.306h-26.752v53.656h53.381v-26.818h26.743v-26.838h53.382v-26.762h53.41v26.762
									h53.383v26.838h26.742v26.818h53.382v-53.656h-26.667v-80.306h-26.715L1084.972,2456.946L1084.972,2456.946z"/>
							</g>
							<g transform="translate(125.369863, 0.000000)">
								<rect id="Rectangle-path_4_" x="3095.199" y="1263.421" fill="#EF3F23" width="373.833" height="46.906"/>
								<path id="Shape_25_" fill="#9F9FA0" d="M3235.383,1216.554v23.433h-23.312v23.434h46.678v-46.866L3235.383,1216.554
									L3235.383,1216.554z"/>
								<path id="Shape_26_" fill="#9F9FA0" d="M3328.831,1239.987v-23.433h-23.33v46.866h46.735v-23.434L3328.831,1239.987
									L3328.831,1239.987z"/>
								<path id="Shape_27_" fill="#FBB46C" d="M3212.071,1193.122v-23.474h-23.442v-23.433h-46.695v23.433h23.33v23.474h23.365
									v23.433h23.442v23.433h23.348v-46.865L3212.071,1193.122L3212.071,1193.122z"/>
								<path id="Shape_28_" fill="#FBB46C" d="M3375.584,1146.255v23.394h-23.348v23.474h-23.405v46.865h23.405v-23.433h23.348
									v-23.433h23.348v-23.474h23.368v-23.394L3375.584,1146.255L3375.584,1146.255z"/>
								<path id="Shape_29_" fill="#9F9FA0" d="M3141.934,1099.35v-23.436h-23.35v93.732h23.35v-23.394h23.328v-46.904
									L3141.934,1099.35L3141.934,1099.35z"/>
								<path id="Shape_30_" fill="#9F9FA0" d="M3422.3,1075.916v23.436h-23.368v46.904h23.368v23.394h23.366v-93.732
									L3422.3,1075.916L3422.3,1075.916z"/>
								<path id="Shape_31_" fill="#FBB46C" d="M3212.071,1005.579v23.44h-23.442v23.463h-23.365v23.434h-23.33v23.435h46.695
									v-23.435h23.442v-23.434h23.348v-46.903H3212.071z"/>
								<path id="Shape_32_" fill="#FBB46C" d="M3398.932,1075.916v-23.434h-23.349v-23.463h-23.348v-23.44h-23.405v46.903h23.405
									v23.434h23.348v23.436h46.716v-23.436H3398.932z"/>
								<path id="Shape_33_" fill="#9F9FA0" d="M3212.071,982.19v23.389h23.348v23.44h23.33V982.19H3212.071z"/>
								<path id="Shape_34_" fill="#9F9FA0" d="M3305.501,982.19v46.829h23.33v-23.44h23.405V982.19H3305.501z"/>
								<rect id="Rectangle-path_5_" x="3095.199" y="935.288" fill="#EF3F23" width="373.833" height="46.902"/>
							</g>
							<g transform="translate(125.369863, 100.216783)">
								<rect id="Rectangle-path_6_" x="3095.199" y="2800.517" fill="#010101" width="373.833" height="70.062"/>
								<path id="Shape_35_" fill="#010101" d="M3445.74,2823.997v328.125h-350.541v23.404h373.909v-351.529H3445.74
									L3445.74,2823.997z M3422.336,3105.216h-23.327v23.461h23.327V3105.216L3422.336,3105.216z M3422.336,2847.382h-23.327
									v23.385h23.327V2847.382L3422.336,2847.382z M3282.135,3105.216v23.461h46.773v-46.885h-23.369v23.387h-23.404V3105.216z
									 M3305.539,3034.962h-23.367v23.389h46.772v-46.906h46.753v-93.676h-23.385v70.291h-46.735v46.902H3305.539z
									 M3258.787,2917.769h46.752v-23.482h-70.081v70.293h-23.387v23.479h46.753v-70.289H3258.787L3258.787,2917.769z
									 M3165.299,3105.216h-23.365v23.461h23.365V3105.216L3165.299,3105.216z M3165.299,2847.382h-23.365v23.385h23.365V2847.382
									L3165.299,2847.382z"/>
								<path id="Shape_36_" fill="#FBB46C" d="M3118.623,3152.122h327.117v-328.125h-327.117V3152.122L3118.623,3152.122z
									 M3165.299,3128.716h-23.365v-23.463h23.365V3128.716L3165.299,3128.716z M3165.299,2870.808h-23.365v-23.391h23.365
									V2870.808L3165.299,2870.808z M3375.584,3011.444h-46.717v46.906h-23.366v23.479h23.366v46.885h-46.771v-23.463h-23.31
									v-46.9h23.31v-23.389h-23.31v-46.904h-46.752v-23.479h-23.406v-70.293h23.406v-23.479h116.796v23.479h23.328v23.482h23.348
									v93.676H3375.584z M3422.336,3128.716h-23.327v-23.463h23.327V3128.716L3422.336,3128.716z M3422.336,2870.808h-23.327
									v-23.391h23.327V2870.808L3422.336,2870.808z M3282.135,2964.579h23.366v-46.811h-46.714v70.289h23.311v-23.479H3282.135z"
									/>
								<path id="Shape_37_" fill="#D54E27" d="M3118.623,2823.997h327.117v-23.479h-327.117V2823.997L3118.623,2823.997z
									 M3328.908,2870.808h-116.837v23.479h-23.368v70.293h46.755v-70.293h70.081v70.293h-23.367v23.479h-23.348v46.904h46.753
									v-46.904h46.735v-93.771h-23.329v-23.479H3328.908z M3258.787,3105.216h46.714v-46.904h-46.714V3105.216L3258.787,3105.216z
									 M3095.199,3152.122h23.386v-328.125h-23.386V3152.122L3095.199,3152.122z"/>
							</g>
							<g transform="translate(29.383562, 0.000000)">
								<rect id="Rectangle-path_7_" x="1322.679" y="935.288" fill="#010101" width="373.873" height="70.023"/>
								<path id="Shape_38_" fill="#010101" d="M1673.184,958.711v328.143h-350.505v23.474h373.873V958.712L1673.184,958.711
									L1673.184,958.711z M1649.825,1239.987h-23.356v23.434h23.356V1239.987L1649.825,1239.987z M1649.825,982.153h-23.356
									v23.426h23.356V982.153L1649.825,982.153z M1509.633,1239.987v23.434h46.715v-46.904h-23.357v23.433h-23.358V1239.987
									L1509.633,1239.987z M1532.991,1169.648h-23.358v23.434h46.715v-46.901h46.763v-93.735h-23.367v70.301h-46.714v46.903
									L1532.991,1169.648L1532.991,1169.648z M1486.228,1052.482h46.762v-23.463h-70.119v70.331h-23.396v23.432h46.716v-70.3
									H1486.228z M1392.789,1239.987h-23.395v23.434h23.395V1239.987L1392.789,1239.987z M1392.789,982.153h-23.395v23.426h23.395
									V982.153L1392.789,982.153z"/>
								<path id="Shape_39_" fill="#FBB46C" d="M1346.036,1286.817h327.148V958.672h-327.148V1286.817L1346.036,1286.817z
									 M1392.789,1263.421h-23.358v-23.434h23.358V1263.421L1392.789,1263.421z M1392.789,1005.579h-23.358v-23.426h23.358
									V1005.579L1392.789,1005.579z M1603.073,1146.216h-46.763v46.906h-23.358v23.433h23.358v46.904h-46.715v-23.433h-23.404
									v-46.904h23.404v-23.436h-23.404v-46.904h-46.716v-23.432h-23.395v-70.331h23.395v-23.404h116.797v23.404h23.395v23.463
									h23.367v93.733L1603.073,1146.216L1603.073,1146.216z M1649.825,1263.421h-23.356v-23.434h23.356V1263.421
									L1649.825,1263.421z M1649.825,1005.579h-23.356v-23.426h23.356V1005.579L1649.825,1005.579z M1509.633,1099.309h23.358
									v-46.865h-46.762v70.301h23.404V1099.309L1509.633,1099.309z"/>
								<path id="Shape_40_" fill="#D54E27" d="M1346.036,958.711h327.109v-23.386h-327.109V958.711L1346.036,958.711z
									 M1556.348,1005.579h-116.834v23.396h-23.396v70.336h46.753v-70.336h70.119v70.336h-23.358v23.436h-23.404v46.903h46.762
									v-46.903h46.715v-93.771h-23.358L1556.348,1005.579L1556.348,1005.579z M1486.228,1239.987h46.762v-46.905h-46.762V1239.987
									L1486.228,1239.987z M1322.679,1286.817h23.357V958.672h-23.357V1286.817L1322.679,1286.817z"/>
							</g>
							<rect id="Rectangle-path_8_" x="3594.705" y="3136.128" fill="#D54E27" width="93.165" height="100.105"/>
							<g transform="translate(29.383562, 0.000000)">
								<rect id="Rectangle-path_9_" x="1696.551" y="2995.45" fill="#D54E27" width="100.703" height="100.336"/>
								<path id="Shape_41_" fill="#D54E27" d="M1937.266,2855.04H1742.09l-45.539,45.693v54.641h240.715V2855.04L1937.266,2855.04z
									"/>
								<path id="Shape_42_" fill="#D54E27" d="M1977.287,3181.669l45.539-45.691h-45.539V3181.669z"/>
								<path id="Shape_43_" fill="#D54E27" d="M1696.551,3135.978v100.334h226.253l14.462-14.549v-85.785H1696.551z"/>
								<path id="Shape_44_" fill="#D54E27" d="M1837.245,2995.45v100.336h225.571l14.491-14.451v-85.885H1837.245z"/>
								<path id="Shape_45_" fill="#D54E27" d="M1977.287,2855.04v100.334h225.533l14.5-14.547v-85.787H1977.287z"/>
								<path id="Shape_46_" fill="#D54E27" d="M2117.299,3041.161l45.539-45.711h-45.539V3041.161z"/>
								<path id="Shape_47_" fill="#D54E27" d="M1797.254,2799.677l-15.183,15.25h15.183V2799.677z"/>
								<path id="Shape_48_" fill="#D54E27" d="M1937.266,2292.992h-240.829v0.036h0.114l100.172,100.535h140.543V2292.992
									L1937.266,2292.992z"/>
								<path id="Shape_49_" fill="#D54E27" d="M2077.307,2814.927v-100.334h-195.244l-44.818,44.951v55.383H2077.307
									L2077.307,2814.927z"/>
								<rect id="Rectangle-path_10_" x="1977.287" y="2574.154" fill="#D54E27" width="240.032" height="100.343"/>
								<rect id="Rectangle-path_11_" x="1883.468" y="2574.154" fill="#D54E27" width="53.798" height="100.343"/>
								<path id="Shape_50_" fill="#D54E27" d="M2077.307,2433.666h-240.062v0.579l46.222,46.327V2534h193.84V2433.666z"/>
								<rect id="Rectangle-path_12_" x="1977.287" y="2292.992" fill="#D54E27" width="240.032" height="100.609"/>
								<rect id="Rectangle-path_13_" x="2117.299" y="2714.593" fill="#D54E27" width="140.003" height="100.334"/>
								<rect id="Rectangle-path_14_" x="2117.299" y="2433.666" fill="#D54E27" width="140.003" height="100.334"/>
								<path id="Shape_51_" fill="#D54E27" d="M1937.266,1731.433h-54.747l-99.993,100.298h154.739L1937.266,1731.433
									L1937.266,1731.433z"/>
								<rect id="Rectangle-path_15_" x="1837.245" y="2152.779" fill="#D54E27" width="240.024" height="100.335"/>
								<path id="Shape_52_" fill="#D54E27" d="M1977.287,2112.667h100.21l-7.113-7.143l92.909-93.191h-186.006V2112.667
									L1977.287,2112.667z"/>
								<rect id="Rectangle-path_16_" x="1696.437" y="2012.333" fill="#D54E27" width="240.829" height="100.333"/>
								<rect id="Rectangle-path_17_" x="1837.245" y="1871.844" fill="#D54E27" width="240.024" height="100.334"/>
								<rect id="Rectangle-path_18_" x="1977.287" y="1731.433" fill="#D54E27" width="240.032" height="100.298"/>
								<path id="Shape_53_" fill="#D54E27" d="M2117.299,2253.114h100.249l-100.021-100.335h-0.228V2253.114L2117.299,2253.114z"/>
								<path id="Shape_54_" fill="#D54E27" d="M2117.299,1972.178h86.023l53.98-54.188v-46.146h-140.003V1972.178z"/>
								<path id="Shape_55_" fill="#D54E27" d="M1797.254,1310.327h-100.703l99.716,100.066h0.987V1310.327z"/>
								<rect id="Rectangle-path_19_" x="1696.551" y="1169.574" fill="#D54E27" width="240.715" height="100.334"/>
								<rect id="Rectangle-path_20_" x="1883.468" y="1590.948" fill="#D54E27" width="193.84" height="100.344"/>
								<rect id="Rectangle-path_21_" x="1977.287" y="1450.47" fill="#D54E27" width="240.032" height="100.334"/>
								<path id="Shape_56_" fill="#D54E27" d="M1937.266,1450.47h-100.978l47.18,47.322v53.012h53.798V1450.47z"/>
								<rect id="Rectangle-path_22_" x="1837.245" y="1310.327" fill="#D54E27" width="240.024" height="100.066"/>
								<path id="Shape_57_" fill="#D54E27" d="M1977.287,1269.908h239.767l-100.021-100.334h-139.746V1269.908L1977.287,1269.908z"
									/>
								<rect id="Rectangle-path_23_" x="2117.299" y="1590.948" fill="#D54E27" width="140.003" height="100.344"/>
								<path id="Shape_58_" fill="#D54E27" d="M2117.299,1310.327v100.066h140.003v-100.066H2117.299z"/>
								<rect id="Rectangle-path_24_" x="1696.551" y="1029.096" fill="#D54E27" width="100.703" height="100.372"/>
								<path id="Shape_59_" fill="#D54E27" d="M1837.245,1129.468h239.796l-100.021-100.372h-139.776L1837.245,1129.468
									L1837.245,1129.468z"/>
								<path id="Shape_60_" fill="#D54E27" d="M1883.468,935.288h-186.917v53.73h240.488L1883.468,935.288z"/>
								<path id="Shape_61_" fill="#D54E27" d="M1622.779,2293.028h34.472H1622.779z"/>
								<rect id="Rectangle-path_25_" x="1322.679" y="2152.779" fill="#D54E27" width="194.522" height="100.335"/>
								<rect id="Rectangle-path_26_" x="1417.218" y="2012.333" fill="#D54E27" width="240.033" height="100.333"/>
								<rect id="Rectangle-path_27_" x="1322.679" y="2012.333" fill="#D54E27" width="54.51" height="100.333"/>
								<rect id="Rectangle-path_28_" x="1322.679" y="1917.991" fill="#D54E27" width="194.522" height="54.188"/>
								<g id="Shape_62_" transform="translate(11.753425, 47.160839)">
									<path fill="#D54E27" d="M1730.753,1824.684l-45.956,46.146h-0.114h-139.216v54.188h139.216H1785.5v-100.334H1730.753z"/>
									<path fill="#D54E27" d="M1545.467,2105.618v100.335h139.216H1785.5v-100.335h-100.817H1545.467z"/>
								</g>
								<g id="Shape_63_" transform="translate(0.000000, 1.965035)">
									<path fill="#010101" d="M1696.551,3273.778h186.917l39.336-39.432h-226.253V3273.778z"/>
									<path fill="#010101" d="M2257.302,1588.983v-180.555h-140.003v-100.066h139.965l-40.248-40.408h-239.768v-100.345h139.747
										l-40.029-40.104h-239.759v-100.372h139.775l-40.019-40.113h-240.488v40.113h100.704v100.372h-100.704v40.104h240.716
										v100.345h-240.716v40.408h100.704v100.066h-0.987l40.021,40.115h100.979v100.334h-53.799v40.152h193.84v100.334h-193.84
										v39.195l-0.91,0.909h54.709v100.298h-154.74l-40.019,40.152h54.747v100.334h-100.818h-139.216v-54.19h-40.019v54.19
										h-194.533v40.151h54.52v100.334h-54.52v40.115h194.533v100.334h-194.533v39.915h300.11h34.473h39.185v-0.039h240.83
										v100.609h-140.544l40.522,40.646v-0.578h240.024v100.335h-193.84v40.151h53.799v100.343h-53.799v38.77l-1.29,1.287h195.206
										v100.334h-240.024v-55.361l-39.991,40.111v15.25h-15.183l-39.981,40.113h195.176v100.355h-240.715v40.096h100.703v100.334
										h-100.703v40.191h240.715v85.785l40.021-40.098v-45.688h45.539l39.991-40.191h-225.571v-100.334h240.024v85.881
										l40.029-40.189v-45.689h45.539l39.982-40.098h-225.533v-100.354h240.032v85.787l39.982-40.094v-45.693v-40.113h-140.003
										v-100.334h140.003v-180.591h-140.003V2431.7h140.003v-140.674l-0.038-0.04l-39.755-39.875h-100.21v-100.334h0.189
										l-40.029-40.117h-100.21v-100.333h186.006l40.03-40.15h-85.986v-100.334h140.003v-140.451v-40.142h-140.003v-100.345
										h140.003V1588.983z M1837.245,1408.428v-100.066h240.024v100.066H1837.245L1837.245,1408.428z M1696.437,2010.368h240.829
										v100.333h-240.829V2010.368L1696.437,2010.368z M1417.218,2110.701v-100.333h240.033v100.333H1417.218L1417.218,2110.701z
										 M1797.254,2251.149h-100.817h-139.216v-100.335h139.216h100.817V2251.149L1797.254,2251.149z M2217.319,2572.189v100.343
										h-240.032v-100.343H2217.319L2217.319,2572.189z M2217.319,2291.027v100.609h-240.032v-100.609H2217.319L2217.319,2291.027
										z M2077.307,2150.814v100.335h-240.023v-100.335H2077.307L2077.307,2150.814z M2077.307,1970.213h-240.023v-100.334
										h240.023V1970.213L2077.307,1970.213z M2217.319,1729.468v100.298h-240.032v-100.298H2217.319L2217.319,1729.468z
										 M1977.287,1548.839v-100.334h240.032v100.334H1977.287L1977.287,1548.839z"/>
								</g>
							</g>
							<g transform="translate(0.000000, 90.391608)">
								<path id="Shape_64_" fill="none" d="M1352.052,2950.086v0.684H1212.05L1352.052,2950.086z"/>
								<rect id="Rectangle-path_29_" x="791.225" y="2668.926" fill="#D54E27" width="100.78" height="100.58"/>
								<rect id="Rectangle-path_30_" x="932.035" y="2668.926" fill="#D54E27" width="240.023" height="100.58"/>
								<rect id="Rectangle-path_31_" x="1072.037" y="2810.342" fill="#D54E27" width="240.071" height="99.652"/>
								<path id="Shape_65_" fill="#D54E27" d="M1032.017,2909.994H890.563l-99.3-99.652h240.754V2909.994z"/>
								<path id="Shape_66_" fill="#D54E27" d="M1172.058,2950.77v99.648h-141.492l-98.531-98.834v-0.814H1172.058L1172.058,2950.77
									z"/>
								<path id="Shape_67_" fill="#D54E27" d="M1312.071,3091.277v94.074h-146.973l-93.062-93.316v-0.758H1312.071
									L1312.071,3091.277z"/>
								<path id="Shape_68_" fill="#D54E27" d="M1212.049,2669.891l98.807,99.613h-98.807V2669.891z"/>
								<rect id="Rectangle-path_32_" x="1212.049" y="2950.77" fill="#D54E27" width="140.002" height="99.648"/>
								<path id="Shape_69_" fill="#010101" d="M1212.049,2669.891v99.574h98.807l41.195,40.836v139.748l-140.002,0.684v99.65
									h140.002v134.93h-39.981v-94.076h-240.072v0.76l-41.47-41.611h141.492v-99.65H931.995v0.814l-41.432-41.596h141.454v-99.65
									H791.225h-0.038v-40.836h100.78v-100.58h-100.78v-46.051h373.872L1212.049,2669.891L1212.049,2669.891z M1072.037,2909.994
									h240.071v-99.652h-240.071V2909.994L1072.037,2909.994z M932.035,2668.926v100.58h240.023v-100.58H932.035L932.035,2668.926
									z"/>
							</g>
							<g transform="translate(144.958904, 84.496503)">
								<rect id="Rectangle-path_33_" x="3449.597" y="2816.237" fill="#D54E27" width="93.393" height="54.66"/>
								<g>
									<path id="Shape_70_" fill="#D54E27" d="M3863.03,2870.897h186.389l54.489-54.66v-45.693H3863.03V2870.897z"/>
									<path id="Shape_71_" fill="#D54E27" d="M3582.968,3051.481v100.334h186.389l53.693-53.885v-46.449H3582.968z"/>
									<path id="Shape_72_" fill="#D54E27" d="M3723.02,2910.954v100.336h186.312l53.771-53.811v-46.525H3723.02L3723.02,2910.954
										z"/>
									<path id="Shape_73_" fill="#D54E27" d="M3823.05,2870.897v-100.354h-234.408l-5.674,5.652v94.701H3823.05z"/>
									<rect id="Rectangle-path_34_" x="4003.046" y="2629.223" fill="#D54E27" width="100.826" height="101.207"/>
									<rect id="Rectangle-path_35_" x="3730.245" y="2629.223" fill="#D54E27" width="232.816" height="101.207"/>
									<path id="Shape_74_" fill="#D54E27" d="M3683,2675.862l-54.357,54.568H3683V2675.862z"/>
									<path id="Shape_75_" fill="#D54E27" d="M3683,3011.29v-100.336h-139.975h-93.429v100.336h93.429H3683z"/>
									<g id="Shape_76_">
										<path fill="#D54E27" d="M4004.335,2522.669V2590h99.573v-94.084h-99.573V2522.669z"/>
										<path fill="#010101" d="M3937.229,2590h-74.198h-39.979h-93.032v38.77l-46.98,47.092v54.568h-54.396l-40,40.113h234.409
											v100.354h-240.085v-94.664l-39.904,40.039h-0.074v54.662h-93.393v40.096h93.393h140.012v100.334h-140.012h-93.393v40.189
											h93.393v100.334h-93.393v39.434h93.393h186.991l39.338-39.434h-186.351v-100.334h240.082v46.451l86.316-86.641h-186.31
											V2911.03h240.081v46.525l86.355-86.621h-186.388v-100.352h240.878v-40.115h-100.827v-101.205h100.827v-39.223h-99.574
											h-67.183V2590H3937.229z M3963.103,2730.43h-232.817v-101.207h232.817V2730.43L3963.103,2730.43z"/>
									</g>
								</g>
							</g>
							<g transform="translate(144.958904, 0.000000)">
								<path id="Shape_77_" fill="#D54E27" d="M3543.025,1310.327L3543.025,1310.327h0.038l43.037,43.168v-43.168H3543.025z"/>
								<path id="Shape_78_" fill="#D54E27" d="M3723.02,1129.468h200.499l-99.898-100.372H3723.02V1129.468L3723.02,1129.468z"/>
								<rect id="Rectangle-path_36_" x="3496.312" y="1263.459" fill="#D54E27" width="0" height="93.696"/>
								<rect id="Rectangle-path_37_" x="3546.138" y="1169.574" fill="none" width="0" height="100.334"/>
								<path id="Shape_79_" fill="#D54E27" d="M3586.101,1269.908L3586.101,1269.908v-46.364h69.931h26.665v-26.764v-27.206
									h-96.596V1269.908z"/>
								<path id="Shape_80_" fill="#D54E27" d="M3783.6,989.018l-53.468-53.655l-0.113-0.115h-143.692v53.771L3783.6,989.018
									L3783.6,989.018z"/>
								<rect id="Rectangle-path_38_" x="3449.597" y="1169.574" fill="#D54E27" width="96.501" height="100.334"/>
								<path id="Shape_81_" fill="#D54E27" d="M3683,1129.468v-100.372h-139.975h-93.429v100.372h93.429H3683z"/>
								<rect id="Rectangle-path_39_" x="3449.597" y="935.248" fill="#D54E27" width="96.501" height="53.735"/>
								<path id="Shape_82_" fill="#010101" d="M3586.101,1310.327v-40.419v-100.334h96.596v-40.031h67.029h173.941l-0.148-0.074
									H3723.02v-100.372h100.601l-40.021-40.078h-197.273v-53.771h-40.188v53.771h-96.541v40.078h93.429h139.975v100.372h-139.976
									h-93.429v40.105h96.541v100.334h-96.541v40.419h93.429H3586.101z"/>
							</g>
							<g transform="translate(127.328767, 5.895105)">
								<g>
									<rect id="Rectangle-path_40_" x="3392.495" y="2225.236" fill="#FFFFFF" width="93.696" height="93.997"/>
									<rect id="Rectangle-path_41_" x="3486.154" y="2131.161" fill="#FFFFFF" width="93.751" height="94.075"/>
									<g>
										<rect id="Rectangle-path_42_" x="4329.796" y="1378.969" fill="#FFFFFF" width="93.771" height="94.037"/>
										<g id="Shape_83_">
											<path fill="none" d="M4423.49,1284.971h-187.449v-94.074h-468.686v94.074h-93.694v188.035h-93.756v282.075h187.45v93.998
												h-374.86v94.046h-93.729v94.039h-93.717v188.072h93.717v93.961h93.729v94.037h-93.729v188.035h93.729v-94h187.41v94.001
												h374.953v-94.001h281.183v-94.034h468.651v-470.11h-93.658v188.036H4423.49v-282.082h93.751v-93.998h93.793v-94.076
												h93.658v-564.12H4423.49V1284.971z"/>
											<path fill="#FFFFFF" d="M4356.499,1029.611v188.037h-53.333v-94.001h-602.802v94.001h-96.599v188.11h-90.906v376.073
												h-187.465v94.074h-93.715v93.962h-93.793v322.652h93.793v376.083h227.81v-94.084h53.333v94.084h509.104v-94.084h281.2
												v-93.998h468.632V1875.87h-187.43v-53.543h93.732v-94h93.697v-698.716H4356.499L4356.499,1029.611z M4704.692,1661.005
												h-93.658v94.076h-93.793v93.998h-93.751v282.082h187.544v-188.036h93.658v470.109H4236.08v94.034h-281.222v94.001
												h-374.913v-94h-187.45v94.001h-93.729v-188.035h93.729v-94.037h-93.729v-94h-93.717v-188.075h93.717v-94.047h93.729
												v-94.036h374.896v-94h-187.445v-282.11h93.752v-188.037h93.693v-94.074h468.688v94.074h187.446v-188.082h281.201v564.194
												H4704.692L4704.692,1661.005z"/>
										</g>
									</g>
								</g>
								<g id="Shape_84_" transform="translate(3.917808, 1.965035)">
									<path fill="#8C742D" d="M3763.513,1659.04h-93.77v-188.037h-93.716v282.072h187.484L3763.513,1659.04L3763.513,1659.04z
										 M4325.878,1565.039h-93.716v94.001h-93.792v94.035h281.202v94.087h93.789v-94.087h93.715v-94.035h-281.198V1565.039
										L4325.878,1565.039z M3763.513,1659.04h187.429v-94.001h-93.714v-94.036h93.714v-94.036h-281.197v94.036h93.77
										L3763.513,1659.04L3763.513,1659.04z M4138.41,1565.039h93.787v-188.035h-93.787V1565.039L4138.41,1565.039z
										 M4607.076,2129.196h-93.715v282.109h187.448V1941.16h-93.733V2129.196L4607.076,2129.196z M4419.572,1377.004v188.076
										h187.504v93.998h93.733v-282.074H4419.572L4419.572,1377.004z M3857.228,1847.162h-468.649v93.998h-93.73v94.039h93.73
										v93.997h374.935v94.075h93.715v-94.075h93.714V1941.16h-93.714V1847.162L3857.228,1847.162z M4232.162,1847.162h-281.258
										v93.998h93.771v94.039h281.202v-94.039h-93.716L4232.162,1847.162L4232.162,1847.162z M3576.028,2223.271h-93.791v93.997
										h-93.658v94.038h-93.73v188.036h93.73v-93.998h187.486v-94.038h93.716v-94.038h-93.716v-93.997H3576.028z
										 M4325.878,1941.16h93.771v-94.038h-93.771V1941.16L4325.878,1941.16z"/>
									<path fill="#EF3F23" d="M4232.162,1283.006v-94.074h-468.649v94.074h-93.77v93.998h843.618v-93.998H4232.162
										L4232.162,1283.006z M4419.572,2223.271h-93.694v-94.075h93.694V1941.16h-93.694v94.039h-281.202v-94.039h-93.771v188.036
										h-93.716v94.075h-93.716v-94.075h-187.487v188.072h93.717v94.038h-93.717v188.036h374.918v-93.998h281.258v-94.038h281.199
										v-282.11h-93.789V2223.271L4419.572,2223.271z M4138.41,2223.271h-93.734v-94.075h93.734V2223.271L4138.41,2223.271z
										 M3857.228,1941.16h93.714v-94.038h-93.714V1941.16L3857.228,1941.16z M4232.162,1941.16h93.716v-94.038h-93.716V1941.16
										L4232.162,1941.16z"/>
									<path fill="#FBB46C" d="M4419.572,1471.041h-93.694v-94.037h-93.716v188.076h93.716v93.998h281.198v-93.998h-187.504
										V1471.041L4419.572,1471.041z M3669.743,1659.04h93.77v-188.037h-93.77V1659.04L3669.743,1659.04z M4138.41,1377.004
										h-187.47v94.037h-93.713v94.039h93.713v93.998h-187.428v188.121h656.06v-94.083H4138.37v-94.038h93.792v-93.998h-93.792
										v-188.076H4138.41z M4419.572,1094.934v188.072h93.789v93.998h187.448v-282.07H4419.572L4419.572,1094.934z
										 M3388.577,2035.199h-187.484v188.072h93.754v93.997h93.73v-93.997h93.696v-94.075h-93.696V2035.199L3388.577,2035.199z
										 M4044.712,2223.271h93.698v-94.075h-93.698V2223.271L4044.712,2223.271z M4325.878,2223.271h93.771v-94.075h-93.771
										V2223.271L4325.878,2223.271z"/>
								</g>
							</g>
							<rect id="Rectangle-path_43_" x="3157.79" y="3275.362" fill="none" width="0" height="3.812"/>
							<rect id="Rectangle-path_44_" x="3189.312" y="3275.362" fill="#26AD4B" width="31.333" height="3.812"/>
							<rect id="Rectangle-path_45_" x="3157.79" y="3275.362" fill="#B6D439" width="31.522" height="3.812"/>
							<g transform="translate(29.383562, 100.216783)">
								<rect id="Rectangle-path_46_" x="1322.716" y="2800.517" fill="#D54E27" width="23.358" height="23.404"/>
								<rect id="Rectangle-path_47_" x="1346.036" y="2823.921" fill="#D54E27" width="23.358" height="23.463"/>
								<rect id="Rectangle-path_48_" x="1369.431" y="2847.382" fill="#D54E27" width="23.358" height="23.385"/>
								<rect id="Rectangle-path_49_" x="1392.789" y="2870.808" fill="#D54E27" width="23.367" height="23.479"/>
								<path id="Shape_85_" fill="#FBE2C4" d="M1392.789,2894.286v-23.479h-23.395v-23.426h-23.358v-23.461h-23.357v328.199h23.357
									v-23.479h23.358v-23.426h23.395v-23.387h23.329v-187.545h-23.329V2894.286z"/>
								<rect id="Rectangle-path_50_" x="1416.156" y="2894.286" fill="#D54E27" width="186.954" height="187.545"/>
								<path id="Shape_86_" fill="#FBE2C4" d="M1346.036,2800.517v23.404h23.358v23.461h23.395v23.426h23.329v23.479h186.955
									v-23.479h23.357v-23.426h23.358v-23.461h23.357v-23.404H1346.036z"/>
								<path id="Shape_87_" fill="#010101" d="M1649.788,3152.122v-23.406h-23.358v-23.5h-23.357v-23.385h-210.284v23.385h-23.358
									v23.5h-23.395v23.406h-23.32v23.404h350.43v-23.404H1649.788z"/>
								<rect id="Rectangle-path_51_" x="1603.073" y="3081.831" fill="#D54E27" width="23.357" height="23.385"/>
								<rect id="Rectangle-path_52_" x="1626.43" y="3105.216" fill="#D54E27" width="23.358" height="23.461"/>
								<rect id="Rectangle-path_53_" x="1649.825" y="3128.716" fill="#D54E27" width="23.359" height="23.406"/>
								<path id="Shape_88_" fill="#010101" d="M1673.145,2800.517v23.404h-23.357v23.461h-23.358v23.426h-23.357v211.021h23.357
									v23.387h23.358v23.426h23.357v23.479h23.406v-351.604H1673.145L1673.145,2800.517z"/>
								<rect id="Rectangle-path_54_" x="1673.184" y="3152.122" fill="#D54E27" width="23.367" height="23.404"/>
							</g>
							<g>
								<path id="Shape_89_" fill="none" d="M1009.646,1403.49h31.163h-31.201v31.258h0.038V1403.49L1009.646,1403.49z"/>
								<rect id="Rectangle-path_55_" x="994.046" y="1419.137" fill="none" width="0" height="31.256"/>
								<polygon id="Rectangle-path_56_" fill="none" points="853.616,1434.748 884.816,1434.748 884.816,1434.748 								"/>
								<polygon id="Rectangle-path_57_" fill="none" points="1009.646,1466.08 1040.809,1466.08 1040.809,1466.08 								"/>
								<polygon id="Rectangle-path_58_" fill="none" points="1196.829,1403.49 1228.029,1403.49 1228.029,1403.49 								"/>
								<polygon id="Rectangle-path_59_" fill="none" points="853.616,1372.195 884.816,1372.195 884.816,1372.195 								"/>
								<polygon id="Rectangle-path_60_" fill="none" points="1103.199,1497.376 1134.4,1497.376 1134.4,1497.376 								"/>
								<rect id="Rectangle-path_61_" x="1056.408" y="1419.137" fill="none" width="0" height="31.256"/>
								<polygon id="Rectangle-path_62_" fill="none" points="1134.4,1466.08 1165.591,1466.08 1165.591,1466.08 								"/>
								<polygon id="Rectangle-path_63_" fill="none" points="1071.999,1466.08 1103.199,1466.08 1103.199,1466.08 								"/>
								<rect id="Rectangle-path_64_" x="1181.19" y="1419.099" fill="none" width="0" height="31.294"/>
								<rect id="Rectangle-path_65_" x="1118.8" y="1419.099" fill="none" width="0" height="31.294"/>
								<path id="Rectangle-path_66_" fill="none" d="M791.225,1403.49L791.225,1403.49L791.225,1403.49z"/>
								<polygon id="Rectangle-path_67_" fill="none" points="1010.329,1090.54 1290.381,1090.54 1290.381,1090.54 								"/>
								<path id="Shape_90_" fill="none" d="M947.255,1497.793v-31.713h31.19h-31.19v-62.59h31.19h-31.19v-249.677h-0.039v343.979
									L947.255,1497.793L947.255,1497.793z"/>
								<polygon id="Rectangle-path_68_" fill="none" points="822.463,1466.08 853.655,1466.08 853.655,1466.08 								"/>
								<polygon id="Rectangle-path_69_" fill="none" points="1103.921,996.652 1321.62,996.652 1321.62,996.652 								"/>
								<path id="Rectangle-path_70_" fill="none" d="M791.225,1466.08L791.225,1466.08L791.225,1466.08z"/>
								<rect id="Rectangle-path_71_" x="1056.408" y="1481.726" fill="none" width="0" height="31.26"/>
								<rect id="Rectangle-path_72_" x="994.046" y="1481.766" fill="none" width="0" height="31.257"/>
								<rect id="Rectangle-path_73_" x="806.864" y="1419.099" fill="none" width="0" height="31.294"/>
								<polygon id="Rectangle-path_74_" fill="none" points="1134.4,1403.49 1165.591,1403.49 1165.591,1403.49 								"/>
								<polygon id="Rectangle-path_75_" fill="none" points="791.263,1372.195 822.463,1372.195 822.463,1372.195 								"/>
								<polygon id="Rectangle-path_76_" fill="none" points="1071.999,1403.49 1103.199,1403.49 1103.199,1403.49 								"/>
								<rect id="Rectangle-path_77_" x="838.064" y="1387.842" fill="none" width="0" height="31.296"/>
								<rect id="Rectangle-path_78_" x="1071.999" y="1434.748" fill="#26AD4B" width="31.2" height="31.294"/>
								<rect id="Rectangle-path_79_" x="791.225" y="1434.748" fill="#26AD4B" width="0" height="31.294"/>
								<path id="Shape_91_" fill="#26AD4B" d="M1165.591,1497.301l31.125-31.221h-31.125V1497.301z"/>
								<rect id="Rectangle-path_80_" x="822.463" y="1434.748" fill="#26AD4B" width="31.192" height="31.294"/>
								<path id="Shape_92_" fill="#26AD4B" d="M1196.829,1466.004l31.087-31.256h-31.087V1466.004z"/>
								<rect id="Rectangle-path_81_" x="1134.4" y="1434.748" fill="#26AD4B" width="31.191" height="31.294"/>
								<rect id="Rectangle-path_82_" x="853.616" y="1403.49" fill="#26AD4B" width="31.2" height="31.258"/>
								<path id="Shape_93_" fill="#26AD4B" d="M978.445,1403.49v31.258h31.163v-31.258h31.201v31.258h31.19v-31.258h31.2v31.258
									h31.2v-31.258h31.191v31.258h31.238v-31.258h31.2v31.219l93.553-93.847v-344.21h-217.662l-31.191,31.297h217.652v62.591
									h-280.053l-63.073,63.273v249.677H978.445z"/>
								<path id="Shape_94_" fill="#26AD4B" d="M1134.4,1497.793h30.699l0.417-0.417H1134.4V1497.793z"/>
								<rect id="Rectangle-path_83_" x="791.263" y="1403.49" fill="#26AD4B" width="31.2" height="31.258"/>
								<rect id="Rectangle-path_84_" x="1040.809" y="1466.08" fill="#26AD4B" width="31.152" height="31.296"/>
								<path id="Shape_95_" fill="#26AD4B" d="M1009.608,1497.376L1009.608,1497.376h0.038v-31.296h-31.201v31.296H1009.608z"/>
								<path id="Shape_96_" fill="#26AD4B" d="M791.263,1372.195h31.2v31.295h31.153v-31.295h31.2v-155.754l-93.591,93.886v93.163
									h0.038L791.263,1372.195L791.263,1372.195z"/>
								<rect id="Rectangle-path_85_" x="947.255" y="1434.748" fill="#26AD4B" width="31.19" height="31.294"/>
								<path id="Rectangle-path_86_" fill="#26AD4B" d="M1009.608,1434.748L1009.608,1434.748L1009.608,1434.748z"/>
								<rect id="Rectangle-path_87_" x="947.255" y="1497.376" fill="#26AD4B" width="31.19" height="3.812"/>
								<rect id="Rectangle-path_88_" x="1009.646" y="1497.376" fill="#26AD4B" width="31.163" height="3.812"/>
								<rect id="Rectangle-path_89_" x="1071.999" y="1497.376" fill="#26AD4B" width="31.2" height="3.812"/>
								<rect id="Rectangle-path_90_" x="1009.646" y="1434.748" fill="#26AD4B" width="31.163" height="31.294"/>
								<rect id="Rectangle-path_91_" x="1103.199" y="1466.08" fill="#26AD4B" width="31.2" height="31.296"/>
								<path id="Shape_97_" fill="#B6D439" d="M1165.591,1434.748v31.332h31.125l0.113-0.076v-31.256H1165.591z"/>
								<path id="Shape_98_" fill="#B6D439" d="M853.616,1434.748v31.332h-31.153v-31.332h-31.2v31.332h-0.038v31.713h93.591
									v-63.045H853.616z"/>
								<path id="Shape_99_" fill="#B6D439" d="M1290.381,1027.949h-217.652l-62.4,62.591h280.053L1290.381,1027.949
									L1290.381,1027.949z"/>
								<rect id="Rectangle-path_92_" x="1103.199" y="1434.748" fill="#B6D439" width="31.2" height="31.294"/>
								<rect id="Rectangle-path_93_" x="822.463" y="1403.49" fill="#B6D439" width="31.192" height="31.258"/>
								<rect id="Rectangle-path_94_" x="853.616" y="1372.195" fill="#B6D439" width="31.2" height="31.295"/>
								<path id="Shape_100_" fill="#B6D439" d="M1040.809,1497.376v-31.296h31.19v-31.332h-31.19v-31.258h-31.163v31.258h31.163
									v31.332h-31.163v31.296H1040.809v0.417h31.19v-0.417H1040.809z"/>
								<path id="Shape_101_" fill="#B6D439" d="M1321.582,1340.862l30.47-30.535V935.288h-186.954l-61.178,61.364h217.662V1340.862
									z"/>
								<path id="Shape_102_" fill="#B6D439" d="M1196.829,1403.49v31.258h31.087l0.113-0.039v-31.219H1196.829z"/>
								<rect id="Rectangle-path_95_" x="1071.999" y="1466.08" fill="#B6D439" width="31.2" height="31.296"/>
								<rect id="Rectangle-path_96_" x="1103.199" y="1497.376" fill="#B6D439" width="31.2" height="3.812"/>
								<path id="Shape_103_" fill="#B6D439" d="M1134.4,1466.08v31.296h31.116l0.076-0.075v-31.221H1134.4z"/>
								<rect id="Rectangle-path_97_" x="1134.4" y="1403.49" fill="#B6D439" width="31.191" height="31.258"/>
								<rect id="Rectangle-path_98_" x="1071.999" y="1403.49" fill="#B6D439" width="31.2" height="31.258"/>
								<rect id="Rectangle-path_99_" x="791.263" y="1372.195" fill="#B6D439" width="31.2" height="31.295"/>
								<rect id="Rectangle-path_100_" x="947.255" y="1403.49" fill="#B6D439" width="31.19" height="31.258"/>
								<rect id="Rectangle-path_101_" x="978.445" y="1434.748" fill="#B6D439" width="31.163" height="31.294"/>
								<rect id="Rectangle-path_102_" x="947.255" y="1466.08" fill="#B6D439" width="31.19" height="31.296"/>
								<rect id="Rectangle-path_103_" x="791.225" y="1403.49" fill="#B6D439" width="0" height="31.258"/>
								<rect id="Rectangle-path_104_" x="978.445" y="1497.376" fill="#B6D439" width="31.163" height="3.812"/>
								<path id="Shape_104_" fill="#010101" d="M947.216,1153.813l-62.4,62.628v281.352h62.4V1153.813z"/>
							</g>
							<path id="Shape_105_" fill="#D54E27" d="M2566.321,1871.844h100.817v46.639h-100.741L2566.321,1871.844"/>
							<rect id="Rectangle-path_105_" x="2566.321" y="1731.433" fill="#D54E27" width="240.793" height="100.298"/>
							<rect id="Rectangle-path_106_" x="2707.168" y="1871.844" fill="#D54E27" width="232.845" height="46.639"/>
							<rect id="Rectangle-path_107_" x="2847.191" y="1731.433" fill="#D54E27" width="93.011" height="100.298"/>
							<rect id="Rectangle-path_108_" x="2566.321" y="1590.948" fill="#D54E27" width="100.779" height="100.344"/>
							<path id="Shape_106_" fill="#D54E27" d="M2667.138,1310.327h-100.779h-0.038v100.066h100.817V1310.327z"/>
							<path id="Shape_107_" fill="#D54E27" d="M2807.114,1169.574h-100.516l-99.982,100.334h200.498V1169.574z"/>
							<rect id="Rectangle-path_109_" x="2707.168" y="1590.948" fill="#D54E27" width="232.845" height="100.344"/>
							<path id="Shape_108_" fill="#D54E27" d="M2847.191,1550.804h93.011v-53.012l47.135-47.322h-140.146V1550.804z"/>
							<rect id="Rectangle-path_110_" x="2566.321" y="1450.47" fill="#D54E27" width="240.793" height="100.334"/>
							<rect id="Rectangle-path_111_" x="2707.168" y="1310.327" fill="#D54E27" width="240.034" height="100.066"/>
							<rect id="Rectangle-path_112_" x="2847.191" y="1169.574" fill="#D54E27" width="240.004" height="100.334"/>
							<path id="Shape_109_" fill="#D54E27" d="M2987.182,1310.327v100.066h40.19l99.708-100.066h0.115H2987.182z"/>
							<path id="Shape_110_" fill="#D54E27" d="M2947.202,1029.096h-100.562l-100.011,100.372h200.573V1029.096z"/>
							<polygon id="Rectangle-path_113_" fill="#D54E27" points="3127.197,1310.327 3220.569,1310.327 3220.569,1310.327 							"/>
							<rect id="Rectangle-path_114_" x="3127.197" y="1169.574" fill="#D54E27" width="93.372" height="100.334"/>
							<rect id="Rectangle-path_115_" x="2987.182" y="1029.096" fill="#D54E27" width="233.425" height="100.372"/>
							<path id="Shape_111_" fill="#010101" d="M2667.138,1918.483h40.03v-46.639h232.845v46.639h0.227v-86.752h-93.013v-100.298
								h93.013v-180.591h-93.013v-100.334h140.185l40.037-40.115h-40.267v-100.066h233.425v-40.419h-93.374v-100.334h93.374v-40.105
								h-233.425v-100.372h233.425v-40.113h-93.374v-53.695h-40.038v53.695h-200.518l-40,40.113h100.561v100.372h-200.57
								l-40.03,40.105h100.513v100.334h-200.534l-40.257,40.419h100.779v100.066h-100.779v40.115h240.791v100.334h-240.791v40.144
								h100.779v100.343h-100.779v40.144h240.791v100.295h-240.791v40.154h100.779V1918.483L2667.138,1918.483z M2847.191,1169.574
								h240.004v100.334h-240.004V1169.574L2847.191,1169.574z M2707.168,1410.393v-100.066h240.034v100.066H2707.168
								L2707.168,1410.393z M2707.168,1691.292v-100.344h232.845v100.344H2707.168L2707.168,1691.292z"/>
							<g transform="translate(92.068493, 68.776224)">
								<rect id="Rectangle-path_116_" x="3034.158" y="2985.074" fill="none" width="0" height="31.674"/>
								<rect id="Rectangle-path_117_" x="3034.158" y="2921.744" fill="none" width="0" height="31.674"/>
								<rect id="Rectangle-path_118_" x="3097.244" y="3174.912" fill="none" width="0" height="31.674"/>
								<rect id="Rectangle-path_119_" x="3034.158" y="3048.348" fill="none" width="0" height="31.598"/>
								<rect id="Rectangle-path_120_" x="3034.158" y="2858.471" fill="none" width="0" height="31.676"/>
								<path id="Shape_112_" fill="none" d="M2474.328,2732.002L2474.328,2732.002h55.203v155.336v-155.336h252.333v408.467
									v-408.467H2474.328z"/>
								<rect id="Rectangle-path_121_" x="3034.158" y="3111.619" fill="none" width="0" height="31.695"/>
								<rect id="Rectangle-path_122_" x="3034.158" y="3174.912" fill="none" width="0" height="31.674"/>
								<rect id="Rectangle-path_123_" x="3065.721" y="2831.957" fill="none" width="0" height="26.514"/>
								<rect id="Rectangle-path_124_" x="3097.244" y="2985.074" fill="none" width="0" height="31.674"/>
								<rect id="Rectangle-path_125_" x="3065.721" y="3016.748" fill="none" width="0" height="31.6"/>
								<rect id="Rectangle-path_126_" x="3065.721" y="3143.315" fill="none" width="0" height="31.598"/>
								<rect id="Rectangle-path_127_" x="3097.244" y="3048.348" fill="none" width="0" height="31.598"/>
								<rect id="Rectangle-path_128_" x="3065.721" y="3079.946" fill="none" width="0" height="31.674"/>
								<rect id="Rectangle-path_129_" x="3097.244" y="2858.471" fill="none" width="0" height="31.676"/>
								<rect id="Rectangle-path_130_" x="3097.244" y="2921.744" fill="none" width="0" height="31.674"/>
								<rect id="Rectangle-path_131_" x="3065.721" y="2953.457" fill="none" width="0" height="31.617"/>
								<rect id="Rectangle-path_132_" x="3097.244" y="3111.619" fill="none" width="0" height="31.695"/>
								<rect id="Rectangle-path_133_" x="3065.721" y="2890.147" fill="none" width="0" height="31.598"/>
								<path id="Shape_113_" fill="none" d="M2750.342,2320.699h-0.039v347.952h-94.604v-379.627v379.627h-181.371v0.078h398.045
									l-0.039-0.078h-121.992V2320.699z"/>
								<rect id="Rectangle-path_134_" x="3097.244" y="3143.315" fill="#26AD4B" width="31.333" height="31.598"/>
								<rect id="Rectangle-path_135_" x="3097.244" y="2831.957" fill="#26AD4B" width="31.333" height="26.514"/>
								<path id="Shape_114_" fill="#26AD4B" d="M2781.865,3140.469l66.348,66.498h217.51v-0.381h-31.563v-31.674h31.563v-31.598
									h-31.563v-31.695h31.563v-31.674h-31.563v-31.598h31.563v-31.6h-31.563v-31.676h31.563v-31.617h-31.563v-31.711h31.563
									v-31.6h-31.563v-31.676h31.563v-26.514h-30.593L2935.458,2732h-153.593V3140.469z"/>
								<path id="Shape_115_" fill="#26AD4B" d="M2655.699,2668.651h31.502v-347.952h63.143v347.952h121.992l-24.123-24.16v-355.467
									h-192.514V2668.651z"/>
								<rect id="Rectangle-path_136_" x="3097.244" y="2890.147" fill="#26AD4B" width="31.333" height="31.598"/>
								<rect id="Rectangle-path_137_" x="3097.244" y="3016.748" fill="#26AD4B" width="31.333" height="31.6"/>
								<rect id="Rectangle-path_138_" x="3097.244" y="2953.457" fill="#26AD4B" width="31.333" height="31.617"/>
								<rect id="Rectangle-path_139_" x="3097.244" y="3079.946" fill="#26AD4B" width="31.333" height="31.674"/>
								<rect id="Rectangle-path_140_" x="3065.721" y="2985.074" fill="#26AD4B" width="31.521" height="31.674"/>
								<path id="Shape_116_" fill="#26AD4B" d="M2474.328,2732.002v99.955l55.203,55.381v-155.336H2474.328z"/>
								<rect id="Rectangle-path_141_" x="3065.721" y="3048.348" fill="#26AD4B" width="31.521" height="31.598"/>
								<path id="Shape_117_" fill="#26AD4B" d="M2687.277,2732.002v313.594l31.504,31.602v-345.195H2687.277L2687.277,2732.002z"/>
								<rect id="Rectangle-path_142_" x="3065.721" y="2858.471" fill="#26AD4B" width="31.521" height="31.676"/>
								<rect id="Rectangle-path_143_" x="3065.721" y="2921.744" fill="#26AD4B" width="31.521" height="31.674"/>
								<rect id="Rectangle-path_144_" x="3065.721" y="3111.619" fill="#26AD4B" width="31.521" height="31.695"/>
								<rect id="Rectangle-path_145_" x="3065.721" y="3174.912" fill="#26AD4B" width="31.521" height="31.674"/>
								<rect id="Rectangle-path_146_" x="3097.244" y="2985.074" fill="#B6D439" width="31.333" height="31.674"/>
								<rect id="Rectangle-path_147_" x="3065.721" y="2953.457" fill="#B6D439" width="31.521" height="31.617"/>
								<rect id="Rectangle-path_148_" x="3065.721" y="2890.147" fill="#B6D439" width="31.521" height="31.598"/>
								<rect id="Rectangle-path_149_" x="3065.721" y="3016.748" fill="#B6D439" width="31.521" height="31.6"/>
								<rect id="Rectangle-path_150_" x="3097.244" y="3174.912" fill="#B6D439" width="31.333" height="31.674"/>
								<path id="Shape_118_" fill="#B6D439" d="M2718.781,2732.002v345.193l63.084,63.271V2732h-63.084V2732.002z"/>
								<rect id="Rectangle-path_151_" x="3065.721" y="3143.315" fill="#B6D439" width="31.521" height="31.598"/>
								<rect id="Rectangle-path_152_" x="3065.721" y="3079.946" fill="#B6D439" width="31.521" height="31.674"/>
								<rect id="Rectangle-path_153_" x="3097.244" y="3111.619" fill="#B6D439" width="31.333" height="31.695"/>
								<rect id="Rectangle-path_154_" x="3065.721" y="2831.957" fill="#B6D439" width="31.521" height="26.514"/>
								<rect id="Rectangle-path_155_" x="2687.201" y="2320.699" fill="#B6D439" width="63.104" height="347.952"/>
								<path id="Shape_119_" fill="#B6D439" d="M2474.328,2668.651h181.371v-379.627h192.514v-32.365h-373.883L2474.328,2668.651
									L2474.328,2668.651z"/>
								<rect id="Rectangle-path_156_" x="3097.244" y="2858.471" fill="#B6D439" width="31.333" height="31.676"/>
								<rect id="Rectangle-path_157_" x="3097.244" y="3048.348" fill="#B6D439" width="31.333" height="31.598"/>
								<rect id="Rectangle-path_158_" x="3097.244" y="2921.744" fill="#B6D439" width="31.333" height="31.674"/>
								<rect id="Rectangle-path_159_" x="3034.158" y="3111.619" fill="#B6D439" width="31.563" height="31.695"/>
								<rect id="Rectangle-path_160_" x="3034.158" y="3174.912" fill="#B6D439" width="31.563" height="31.674"/>
								<rect id="Rectangle-path_161_" x="3034.158" y="3048.348" fill="#B6D439" width="31.563" height="31.598"/>
								<rect id="Rectangle-path_162_" x="3034.158" y="2858.471" fill="#B6D439" width="31.563" height="31.676"/>
								<path id="Shape_120_" fill="#B6D439" d="M2529.531,2732.002v155.336l157.746,158.258v-313.594H2529.531z"/>
								<rect id="Rectangle-path_163_" x="3034.158" y="2985.074" fill="#B6D439" width="31.563" height="31.674"/>
								<rect id="Rectangle-path_164_" x="3034.158" y="2921.744" fill="#B6D439" width="31.563" height="31.674"/>
								<path id="Shape_121_" fill="#010101" d="M2474.328,2732.002h461.127l-63.082-63.273h-398.045V2732.002L2474.328,2732.002z"
									/>
								<rect id="Rectangle-path_165_" x="3035.128" y="2831.916" fill="#010101" width="0" height="3.816"/>
								<rect id="Rectangle-path_166_" x="2474.328" y="2224.795" fill="#010101" width="373.883" height="31.863"/>
							</g>
							<g transform="translate(92.068493, 51.090909)">
								<rect id="Rectangle-path_167_" x="2474.367" y="1867.469" fill="#D54E27" width="23.357" height="23.395"/>
								<rect id="Rectangle-path_168_" x="2497.724" y="1890.864" fill="#D54E27" width="23.367" height="23.435"/>
								<rect id="Rectangle-path_169_" x="2521.092" y="1914.335" fill="#D54E27" width="23.358" height="23.472"/>
								<rect id="Rectangle-path_170_" x="2544.449" y="1937.806" fill="#D54E27" width="23.357" height="23.395"/>
								<path id="Shape_122_" fill="#FBE2C4" d="M2544.449,1961.201v-23.395h-23.358v-23.472h-23.405v-23.471h-23.357v328.173
									h23.357v-23.424h23.405v-23.48h23.358v-23.425h23.357v-187.506H2544.449z"/>
								<rect id="Rectangle-path_171_" x="2567.806" y="1961.201" fill="#D54E27" width="186.917" height="187.543"/>
								<path id="Shape_123_" fill="#FBE2C4" d="M2497.686,1867.469v23.395h23.405v23.471h23.358v23.472h23.357v23.395h186.916
									v-23.395h23.33v-23.472h23.423v-23.471h23.329v-23.395H2497.686z"/>
								<path id="Shape_124_" fill="#010101" d="M2801.475,2219.037v-23.387h-23.423v-23.518h-23.33v-23.39h-210.273v23.39h-23.358
									v23.518h-23.405v23.387h-23.319v23.443h350.477v-23.443H2801.475L2801.475,2219.037z"/>
								<rect id="Rectangle-path_172_" x="2754.722" y="2148.744" fill="#D54E27" width="23.404" height="23.39"/>
								<rect id="Rectangle-path_173_" x="2778.126" y="2172.132" fill="#D54E27" width="23.312" height="23.479"/>
								<rect id="Rectangle-path_174_" x="2801.475" y="2195.65" fill="#D54E27" width="23.368" height="23.387"/>
								<path id="Shape_125_" fill="#010101" d="M2824.843,1867.469v23.395h-23.368v23.471h-23.423v23.472h-23.33v210.9h23.33
									v23.426h23.423v23.479h23.368v23.424h23.368v-351.568H2824.843z"/>
								<rect id="Rectangle-path_175_" x="2824.843" y="2219.037" fill="#D54E27" width="23.368" height="23.443"/>
							</g>
						</g>
					</g>
				</g>
			</g>
		</g>
	</g>
</g>
</svg>
